# xmcd CD database file
# Copyright (C) 1997 Ti Kan
#
# Track frame offsets:
#  150
#  13545
#  29055
#  44065
#  58745
#  78180
#  91513
#  104503
#  120570
#  141883
#  155260
#  172063
#  186503
#
# Disc length: 2647 seconds
#
# Revision: 1
# Processed by: cddbd v1.4b41PL1 Copyright (c) Steve Scherf et al.
# Submitted via: CDWizzard Release:4.31
#
DISCID=ae0a550d
DTITLE=Williams, Big Joe - Mississippi's Big Joe Williams And His Nine-St
DTITLE=ring Guitar
DYEAR=1900
DGENRE=
TTITLE0=Whistling Pines
TTITLE1=Bluebird Blues
TTITLE2=She'll Be Coming Round The Mountain
TTITLE3=Elevate Me Baby
TTITLE4=Mama Don't Allow Me To Fool Around All Night Long
TTITLE5=Kings Highway Blues
TTITLE6=Somebody's Been Fooling (No. 1)
TTITLE7=T.B Blues
TTITLE8=King Bisquit Stomp (No. 2)
TTITLE9=Delta Blues
TTITLE10=Somebody's Been Fooling (No. 3)
TTITLE11=Rooting Ground Hog
TTITLE12=Don't Leave Me Here
EXTD=SF CD 40052\n\nSubmitted 7/3/97\n[Jmccoy@efn.org]
EXTT0=
EXTT1=
EXTT2=
EXTT3=
EXTT4=
EXTT5=
EXTT6=
EXTT7=
EXTT8=
EXTT9=
EXTT10=
EXTT11=
EXTT12=
PLAYORDER=
